<svg width="16" height="16" viewBox="0 0 16 16" fill="none" xmlns="http://www.w3.org/2000/svg">
<path d="M5 1C2.784 1 1 2.784 1 5V11C1 13.216 2.784 15 5 15H11C13.216 15 15 13.216 15 11V5C15 2.784 13.216 1 11 1H5ZM4 6C4.554 6 5 6.446 5 7V9C5 9.554 4.554 10 4 10C3.446 10 3 9.554 3 9V7C3 6.446 3.446 6 4 6ZM12 6C12.554 6 13 6.446 13 7V9C13 9.554 12.554 10 12 10C11.446 10 11 9.554 11 9V7C11 6.446 11.446 6 12 6ZM10.1113 11.1074C10.3127 11.1026 10.5109 11.1588 10.6798 11.2686C10.8488 11.3784 10.9806 11.5367 11.0581 11.7226C11.1356 11.9086 11.1551 12.1137 11.114 12.3109C11.073 12.5082 10.9733 12.6884 10.8281 12.8281C10.0782 13.578 9.0605 14 8 14C6.9395 14 5.9217 13.578 5.1719 12.8281C5.02934 12.6894 4.93139 12.5112 4.89059 12.3165C4.84978 12.1218 4.86797 11.9194 4.94283 11.7351C5.01769 11.5508 5.14581 11.393 5.31083 11.2818C5.47584 11.1707 5.67024 11.1114 5.86917 11.1113C6.00282 11.1113 6.1351 11.1381 6.25822 11.1901C6.38133 11.2421 6.49278 11.3182 6.58597 11.414C6.96131 11.7894 7.46922 12 8.00007 12C8.53092 12 9.03877 11.7894 9.41417 11.414C9.59705 11.2238 9.84767 11.1136 10.1114 11.1074L10.1113 11.1074Z" fill="#D695F7"/>
</svg>
